<svg 
          width="12" 
          height="18" fill="none" 
          xmlns="http://www.w3.org/2000/svg">
          <path d="M 7.724999904632568 18 L 1 11 L 1 9 L 4.5 9 C 5.383333325386047 9 6.145833253860474 8.712499797344208 6.787499904632568 8.137499809265137 C 7.429166555404663 7.562499821186066 7.816666945815086 6.850000023841858 7.950000286102295 6 L 0 6 L 0 4 L 7.650000095367432 4 C 7.36666676402092 3.416666626930237 6.945833623409271 2.9375 6.387500286102295 2.5625 C 5.829166948795319 2.1875 5.199999988079071 2 4.5 2 L 0 2 L 0 0 L 12 0 L 12 2 L 8.75 2 C 8.983333334326744 2.283333331346512 9.191666662693024 2.5916666090488434 9.375 2.924999952316284 C 9.558333337306976 3.258333295583725 9.700000189244747 3.6166666746139526 9.800000190734863 4 L 12 4 L 12 6 L 9.975000381469727 6 C 9.841667041182518 7.416666746139526 9.258333683013916 8.604166686534882 8.225000381469727 9.5625 C 7.191667079925537 10.520833313465118 5.950000047683716 11 4.5 11 L 3.7750000953674316 11 L 10.5 18 L 7.724999904632568 18 Z" fill="rgb(28.000000230968,27.000000290572643,31.000000052154064)"/>
        </svg>